# xmcd
#
# Track frame offsets: 
#        182
#        18245
#        34547
#        51662
#        69762
#        85750
#        103780
#        121275
#        138367
#        156410
#        172387
#        187047
#
# Disc length: 2794 seconds
#
# Revision: 5
# Processed by: cddbd v1.5.2PL0 Copyright (c) Steve Scherf et al.
# Submitted via: ExactAudioCopy v0.95b4
#
DISCID=a50ae80c
DTITLE=Terri Clark - How I Feel
DYEAR=1998
DGENRE=Country
TTITLE0=I'm Alright
TTITLE1=Now That I Found You
TTITLE2=Everytime I Cry
TTITLE3=That's How I Feel
TTITLE4=You're Easy on the Eyes
TTITLE5=Getting Even with the Blues
TTITLE6=Till I Get There
TTITLE7=Not Getting Over You
TTITLE8=This Ole Heart
TTITLE9=Cure for the Common Heartache
TTITLE10=That's Me Not Loving You
TTITLE11=Unsung Hero
EXTD=YEAR: 1998 ID3G:   2
EXTT0=
EXTT1=
EXTT2=
EXTT3=
EXTT4=
EXTT5=
EXTT6=
EXTT7=
EXTT8=
EXTT9=
EXTT10=
EXTT11=
PLAYORDER=
